HIERARCHY
ROOT Hips
{
	OFFSET -3.958830 18.904000 13.208200
	CHANNELS 6 Xposition Yposition Zposition Zrotation Yrotation Xrotation 
	JOINT LHipJoint
	{
		OFFSET 0.000000 0.000000 0.000000
		CHANNELS 3 Zrotation Yrotation Xrotation
		JOINT LeftUpLeg
		{
			OFFSET 1.800000 -1.400000 0.085000
			CHANNELS 3 Zrotation Yrotation Xrotation
			JOINT LeftLeg
			{
				OFFSET 2.215000 -6.000000 0.000000
				CHANNELS 3 Zrotation Yrotation Xrotation
				JOINT LeftFoot
				{
					OFFSET 2.500000 -6.900000 0.000000
					CHANNELS 3 Zrotation Yrotation Xrotation
					JOINT LeftToeBase
					{
						OFFSET 0.200000 -0.500000 1.950000
						CHANNELS 3 Zrotation Yrotation Xrotation
						End Site
						{
							OFFSET 0.000000 0.000000 0.000000
						}
					}
				}
			}
		}
	}
	JOINT RHipJoint
	{
		OFFSET 0.000000 0.000000 0.000000
		CHANNELS 3 Zrotation Yrotation Xrotation
		JOINT RightUpLeg
		{
			OFFSET -1.800000 -1.400000 0.085000
			CHANNELS 3 Zrotation Yrotation Xrotation
			JOINT RightLeg
			{
				OFFSET -2.215000 -6.000000 0.000000
				CHANNELS 3 Zrotation Yrotation Xrotation
				JOINT RightFoot
				{
					OFFSET -2.500000 -6.900000 0.000000
					CHANNELS 3 Zrotation Yrotation Xrotation
					JOINT RightToeBase
					{
						OFFSET -0.200000 -0.500000 1.950000
						CHANNELS 3 Zrotation Yrotation Xrotation
						End Site
						{
							OFFSET 0.000000 0.000000 0.000000
						}
					}
				}
			}
		}
	}
	JOINT LowerBack
	{
		OFFSET 0.000000 0.000000 0.000000
		CHANNELS 3 Zrotation Yrotation Xrotation
		JOINT Spine
		{
			OFFSET -0.087000 1.940000 -0.288900
			CHANNELS 3 Zrotation Yrotation Xrotation
			JOINT Spine1
			{
				OFFSET 0.000000 1.950000 0.060000
				CHANNELS 3 Zrotation Yrotation Xrotation
				JOINT Neck
				{
					OFFSET 0.000000 0.000000 0.000000
					CHANNELS 3 Zrotation Yrotation Xrotation
					JOINT Neck1
					{
						OFFSET 0.000000 1.600000 0.340000
						CHANNELS 3 Zrotation Yrotation Xrotation
						JOINT Head
						{
							OFFSET 0.000000 1.667000 -0.240000
							CHANNELS 3 Zrotation Yrotation Xrotation
							End Site
							{
								OFFSET 0.000000 0.000000 0.000000
							}
						}
					}
				}
				JOINT LeftShoulder
				{
					OFFSET 0.000000 0.000000 0.000000
					CHANNELS 3 Zrotation Yrotation Xrotation
					JOINT LeftArm
					{
						OFFSET 2.700000 1.550000 -0.730000
						CHANNELS 3 Zrotation Yrotation Xrotation
						JOINT LeftForeArm
						{
							OFFSET 5.450000 0.000000 0.000000
							CHANNELS 3 Zrotation Yrotation Xrotation
							JOINT LeftHand
							{
								OFFSET 3.450000 0.000000 0.000000
								CHANNELS 3 Zrotation Yrotation Xrotation
								JOINT LeftHandIndex1
								{
									OFFSET 0.750000 0.000000 0.000000
									CHANNELS 3 Zrotation Yrotation Xrotation
									End Site
									{
										OFFSET 0.000000 0.000000 0.000000
									}
								}
							}
						}
					}
				}
				JOINT RightShoulder
				{
					OFFSET 0.000000 0.000000 0.000000
					CHANNELS 3 Zrotation Yrotation Xrotation
					JOINT RightArm
					{
						OFFSET -2.700000 1.550000 -0.730000
						CHANNELS 3 Zrotation Yrotation Xrotation
						JOINT RightForeArm
						{
							OFFSET -5.450000 0.000000 0.000000
							CHANNELS 3 Zrotation Yrotation Xrotation
							JOINT RightHand
							{
								OFFSET -3.450000 0.000000 0.000000
								CHANNELS 3 Zrotation Yrotation Xrotation
								JOINT RightHandIndex1
								{
									OFFSET -0.750000 0.000000 0.000000
									CHANNELS 3 Zrotation Yrotation Xrotation
									End Site
									{
										OFFSET 0.000000 0.000000 0.000000
									}
								}
							}
						}
					}
				}
			}
		}
	}
}
MOTION
Frames: 6
Frame Time: 0.016667
-0.370690 17.316450 -4.069510 -7.969959 -35.164816 -6.812347 -15.819120 16.035738 2.971269 14.820649 -1.378802 -5.524689 -3.958565 7.345746 20.376658 0.278366 5.179830 2.706582 0.581420 0.419580 0.579090 17.461630 -9.343846 2.260829 -6.094345 0.954501 -16.797323 9.705320 -7.935360 24.937593 -0.675132 -3.417023 3.147660 -0.086650 -0.407300 0.200830 -0.300951 -8.967346 -7.749263 -15.433652 1.237732 32.509593 13.441218 0.387032 3.610789 0.896723 -5.879946 -11.717170 -31.669779 20.205307 50.496850 -2.564290 13.480970 -25.987710 -24.515501 -4.381051 5.284568 -59.048362 -11.754145 -4.555156 152.846609 -72.754432 -160.995521 -3.089180 3.215716 0.849940 -0.443070 0.592790 0.108520 24.584010 8.035934 7.550881 55.122764 -13.713376 -20.038885 18.189159 27.197071 1.243363 2.276201 -1.166854 0.154880 -0.006390 -0.306490 -0.202720 
-0.437370 17.275180 -4.061040 -8.318117 -37.146866 -6.312378 -15.827267 15.969968 2.943272 15.717700 -1.318674 -5.596691 -4.443161 7.782930 21.528511 0.316651 5.387009 2.617559 0.584480 0.418610 0.595180 17.474563 -9.296890 2.318284 -4.583696 1.048898 -13.374647 9.027800 -6.396101 19.018201 -0.615297 -2.800013 3.389048 -0.094640 -0.431470 0.200220 -0.235015 -8.845655 -7.764305 -15.301490 2.127675 30.906674 13.738566 1.751275 3.897809 0.982550 -5.612797 -12.053744 -31.494675 20.340850 51.880243 -2.397410 13.644660 -25.982740 -25.141237 -4.982746 5.662972 -58.917134 -11.264033 -4.665426 151.691128 -72.842676 -159.688339 -3.076051 3.207650 0.867240 -0.459610 0.611970 0.103630 25.168553 8.906146 8.055125 55.868163 -13.865568 -20.351761 16.026279 27.877939 0.998831 2.276878 -1.167789 0.158290 -0.018300 -0.316440 -0.211800 
-0.500310 17.246250 -4.054990 -9.216641 -38.484451 -5.743885 -15.845531 15.881933 2.888899 17.028564 -1.275661 -5.690316 -4.617970 8.164278 22.755875 0.343419 5.596558 2.523521 0.592290 0.429790 0.621470 17.485238 -9.191883 2.451655 -3.007938 0.988611 -10.136033 8.725647 -5.501077 14.171452 -0.636138 -2.534053 3.510251 -0.101680 -0.465550 0.196440 -0.209687 -8.743034 -7.837373 -14.338634 2.689454 30.357737 13.603703 2.883707 4.009491 1.301488 -5.221071 -12.380166 -31.486446 20.486314 54.271276 -3.433120 13.774810 -27.389390 -26.207717 -5.820748 5.870735 -58.199815 -10.978994 -4.816610 149.782182 -72.721161 -157.327416 -3.072253 3.158267 0.898530 -0.483770 0.647340 0.094960 25.732184 9.850642 8.459108 56.707970 -13.594473 -20.439063 13.636548 27.772425 0.668915 2.284944 -1.124566 0.163200 -0.009100 -0.323670 -0.223790 
-0.574090 17.222260 -4.045910 -10.221999 -39.702516 -4.987459 -15.846965 15.718382 2.860977 18.573022 -1.251563 -5.612060 -5.199264 8.627326 23.514699 0.361419 5.829376 2.427830 0.607520 0.443850 0.652150 17.511298 -9.088521 2.627925 -1.565085 0.874706 -7.488836 8.813490 -4.965359 10.180816 -0.694211 -2.468581 3.550419 -0.098210 -0.489300 0.183840 -0.274119 -8.508009 -7.933542 -12.849626 2.860189 29.989401 13.119218 3.701303 3.747336 1.406959 -4.999343 -12.875066 -32.229907 21.239060 56.540795 -3.604030 13.779950 -28.664340 -27.975080 -6.865835 6.198632 -56.668153 -10.092708 -5.001649 146.818352 -71.187227 -152.894446 -3.091444 3.071283 0.938170 -0.510730 0.677310 0.089090 27.489712 11.013534 8.859855 56.524689 -13.687013 -20.160701 10.952760 27.262048 0.295180 2.281602 -1.081331 0.155880 0.018340 -0.329820 -0.238050 
-0.646820 17.204570 -4.036360 -10.888824 -40.518320 -4.388479 -15.840335 15.561431 2.830843 19.652082 -1.245008 -5.480685 -5.583823 8.966872 24.168032 0.389792 5.984902 2.349702 0.653030 0.499640 0.695810 17.538574 -9.018927 2.789497 -0.601476 0.691421 -5.505881 9.150604 -4.650441 7.076023 -0.774825 -2.502089 3.531196 -0.079050 -0.526550 0.189620 -0.369034 -8.255665 -7.998503 -11.609626 2.878010 29.669663 12.722697 4.166726 3.689459 1.218374 -4.918498 -13.312341 -33.172923 22.193998 58.343115 -3.039320 13.674720 -30.242040 -29.411532 -7.788231 6.507265 -55.187450 -9.412962 -5.420371 144.584910 -71.025677 -150.120770 -3.090487 3.031951 0.961790 -0.544710 0.721440 0.086000 29.405003 12.095184 9.108720 55.805200 -13.478602 -19.539653 8.362901 26.391583 -0.059498 2.293176 -1.063482 0.180600 0.024880 -0.350260 -0.239190 
-0.728040 17.188070 -4.030710 -11.468887 -41.175922 -3.475607 -15.828800 15.427974 2.809762 20.464447 -1.209636 -5.532269 -5.785694 9.150582 24.341412 0.377220 6.065554 2.304089 0.669520 0.516160 0.712250 17.563415 -8.975529 2.927564 0.313268 0.612767 -4.490510 9.606162 -4.474225 5.018009 -0.820392 -2.545656 3.514928 -0.067140 -0.535100 0.184950 -0.475006 -8.013468 -8.039312 -10.522813 2.655425 28.967359 12.298015 4.273081 3.590834 0.987132 -4.825303 -13.707072 -34.032753 23.333911 59.523751 -2.427810 13.889190 -30.517380 -30.334285 -8.390562 6.913747 -54.480867 -8.826973 -5.491460 141.504947 -69.913838 -145.664300 -3.130941 2.954752 0.982280 -0.555800 0.732200 0.078390 30.885264 12.631376 9.121702 55.045545 -13.063480 -18.763773 6.739535 25.336305 -0.247475 2.296218 -1.037949 0.177800 0.039480 -0.346690 -0.248650 
